<?xml version="1.0" encoding="UTF-8"?>
<svg version="1.1" xmlns="http://www.w3.org/2000/svg" width="150" height="39">
<path d="M0 0 C4.13405886 1.64518669 6.33180432 4.09470262 8.9375 7.625 C10.82856568 13.63191453 11.33448198 20.19189483 8.375 25.9375 C4.59432777 30.81257735 1.19968365 33.04966605 -4.875 34 C-10.10673805 34.33092319 -13.79923333 33.10449269 -18 30 C-23.09976667 24.50794358 -23.40451812 20.62877155 -23.34765625 13.27734375 C-22.86847002 8.76007132 -21.42323848 5.95835424 -18 3 C-12.3617785 -1.08118263 -6.72245302 -0.8775616 0 0 Z " fill="#FAFBFB" transform="translate(23,2)"/>
<path d="M0 0 C16.17 0 32.34 0 49 0 C49 0.99 49 1.98 49 3 C49.33 2.01 49.66 1.02 50 0 C52.97 0 55.94 0 59 0 C59.495 1.98 59.495 1.98 60 4 C59 5 59 5 56.53149414 5.11352539 C55.46020264 5.10828857 54.38891113 5.10305176 53.28515625 5.09765625 C52.12435547 5.09443359 50.96355469 5.09121094 49.76757812 5.08789062 C48.54490234 5.07951172 47.32222656 5.07113281 46.0625 5.0625 C44.84369141 5.05798828 43.62488281 5.05347656 42.36914062 5.04882812 C39.24605334 5.03670299 36.12305037 5.01907699 33 5 C31.62364803 5 30.24725809 5.0124306 28.87109375 5.03515625 C28.06800781 5.04417969 27.26492187 5.05320312 26.4375 5.0625 C25.63183594 5.07410156 24.82617188 5.08570313 23.99609375 5.09765625 C22 5 22 5 21 4 C21 4.33 21 4.66 21 5 C14.07 5 7.14 5 0 5 C0 3.35 0 1.7 0 0 Z M3 1 C3.33 1.99 3.66 2.98 4 4 C4 3.01 4 2.02 4 1 C3.67 1 3.34 1 3 1 Z M9 1 C10 4 10 4 10 4 Z M28 1 C29 4 29 4 29 4 Z M45 1 C46 3 46 3 46 3 Z " fill="#FFFFFF" transform="translate(67,5)"/>
<path d="M0 0 C1.14871582 0.00523682 2.29743164 0.01047363 3.48095703 0.01586914 C4.72748047 0.0190918 5.97400391 0.02231445 7.25830078 0.02563477 C8.57185547 0.03401367 9.88541016 0.04239258 11.23876953 0.05102539 C12.54458984 0.05553711 13.85041016 0.06004883 15.19580078 0.06469727 C17.62012627 0.07345386 20.04444577 0.08425012 22.46875 0.09765625 C24.43373411 0.10842737 26.3987559 0.11352539 28.36376953 0.11352539 C32.69710286 0.11352539 37.0304362 0.11352539 41.36376953 0.11352539 C40.36376953 3.11352539 40.36376953 3.11352539 38.36376953 6.11352539 C39.02376953 6.44352539 39.68376953 6.77352539 40.36376953 7.11352539 C35.36376953 7.11352539 30.36376953 7.11352539 25.36376953 7.11352539 C24.37376953 7.17540039 23.38376953 7.23727539 22.36376953 7.30102539 C21.37376953 7.23915039 20.38376953 7.17727539 19.36376953 7.11352539 C18.70376953 6.12352539 18.04376953 5.13352539 17.36376953 4.11352539 C16.37376953 5.59852539 16.37376953 5.59852539 15.36376953 7.11352539 C14.37376953 7.11352539 13.38376953 7.11352539 12.36376953 7.11352539 C11.31751545 5.81617032 10.3167573 4.48085567 9.36376953 3.11352539 C8.70376953 2.78352539 8.04376953 2.45352539 7.36376953 2.11352539 C7.69376953 3.76352539 8.02376953 5.41352539 8.36376953 7.11352539 C6.55134901 7.14039818 4.7388172 7.15986255 2.92626953 7.17602539 C1.91693359 7.18762695 0.90759766 7.19922852 -0.13232422 7.21118164 C-2.63623047 7.11352539 -2.63623047 7.11352539 -3.63623047 6.11352539 C-3.76123047 3.61352539 -3.76123047 3.61352539 -3.63623047 1.11352539 C-2.63623047 0.11352539 -2.63623047 0.11352539 0 0 Z M-0.63623047 1.11352539 C0.36376953 3.11352539 0.36376953 3.11352539 0.36376953 3.11352539 Z M21.36376953 1.11352539 C21.36376953 2.76352539 21.36376953 4.41352539 21.36376953 6.11352539 C22.02376953 6.11352539 22.68376953 6.11352539 23.36376953 6.11352539 C23.36376953 4.46352539 23.36376953 2.81352539 23.36376953 1.11352539 C22.70376953 1.11352539 22.04376953 1.11352539 21.36376953 1.11352539 Z M30.36376953 1.11352539 C30.03376953 2.43352539 29.70376953 3.75352539 29.36376953 5.11352539 C30.35376953 5.11352539 31.34376953 5.11352539 32.36376953 5.11352539 C32.03376953 3.79352539 31.70376953 2.47352539 31.36376953 1.11352539 C31.03376953 1.11352539 30.70376953 1.11352539 30.36376953 1.11352539 Z M3.36376953 1.11352539 C3.36376953 2.10352539 3.36376953 3.09352539 3.36376953 4.11352539 C2.04376953 4.44352539 0.72376953 4.77352539 -0.63623047 5.11352539 C1.83876953 5.60852539 1.83876953 5.60852539 4.36376953 6.11352539 C4.36376953 4.46352539 4.36376953 2.81352539 4.36376953 1.11352539 C4.03376953 1.11352539 3.70376953 1.11352539 3.36376953 1.11352539 Z " fill="#FFFFFF" transform="translate(96.63623046875,24.886474609375)"/>
<path d="M0 0 C34.98 0 69.96 0 106 0 C106 0.66 106 1.32 106 2 C71.02 2 36.04 2 0 2 C0 1.34 0 0.68 0 0 Z " fill="#FFFFFF" transform="translate(44,15)"/>
<path d="M0 0 C2.31 0 4.62 0 7 0 C6.835 1.010625 6.67 2.02125 6.5 3.0625 C5.65237593 9.66441708 5.92215082 16.3568696 6 23 C4.02 23 2.04 23 0 23 C0.66 22.67 1.32 22.34 2 22 C2 17.38 2 12.76 2 8 C1.34 8 0.68 8 0 8 C0 5.36 0 2.72 0 0 Z " fill="#1E3A62" transform="translate(13,13)"/>
<path d="M0 0 C0.99 0 1.98 0 3 0 C3 0.99 3 1.98 3 3 C3.66 3.33 4.32 3.66 5 4 C4.01 4 3.02 4 2 4 C2.57344937 6.86724686 2.8614515 7.8614515 5 10 C3.35 10 1.7 10 0 10 C-0.66 8.02 -1.32 6.04 -2 4 C-2 4.99 -2 5.98 -2 7 C-2.33 7.33 -2.66 7.66 -3 8 C-2.67 8.66 -2.34 9.32 -2 10 C-3.99954746 10.04254356 -6.00041636 10.04080783 -8 10 C-9 9 -9 9 -9.125 6.5 C-9 4 -9 4 -8 3 C-5.32941149 2.85884839 -2.67567762 2.95752893 0 3 C0 2.01 0 1.02 0 0 Z M-6 4 C-5 6 -5 6 -5 6 Z " fill="#FFFFFF" transform="translate(68,22)"/>
<path d="M0 0 C0.99 0 1.98 0 3 0 C3 0.99 3 1.98 3 3 C3.99 3 4.98 3 6 3 C6 2.01 6 1.02 6 0 C6.99 0 7.98 0 9 0 C9 0.99 9 1.98 9 3 C9.66 3.33 10.32 3.66 11 4 C10.01 4 9.02 4 8 4 C8.57344937 6.86724686 8.8614515 7.8614515 11 10 C9.35 10 7.7 10 6 10 C5.67 8.35 5.34 6.7 5 5 C4.01 4.67 3.02 4.34 2 4 C2.57344937 6.86724686 2.8614515 7.8614515 5 10 C3.35 10 1.7 10 0 10 C-0.66 7.69 -1.32 5.38 -2 3 C-1.34 3 -0.68 3 0 3 C0 2.01 0 1.02 0 0 Z " fill="#FFFFFF" transform="translate(82,22)"/>
<path d="M0 0 C2.9375 0.1875 2.9375 0.1875 3.9375 1.1875 C4.125 4.625 4.125 4.625 3.9375 8.1875 C1.9375 10.1875 1.9375 10.1875 -1.125 10.375 C-4.0625 10.1875 -4.0625 10.1875 -5.0625 9.1875 C-5.25 5.75 -5.25 5.75 -5.0625 2.1875 C-3.0625 0.1875 -3.0625 0.1875 0 0 Z M-1.0625 1.1875 C-2.41868499 2.31284105 -2.41868499 2.31284105 -2.125 5.25 C-2.104375 6.219375 -2.08375 7.18875 -2.0625 8.1875 C-1.0725 8.1875 -0.0825 8.1875 0.9375 8.1875 C0.9375 6.2075 0.9375 4.2275 0.9375 2.1875 C0.2775 1.8575 -0.3825 1.5275 -1.0625 1.1875 Z " fill="#FFFFFF" transform="translate(54.0625,21.8125)"/>
<path d="M0 0 C2.31 0 4.62 0 7 0 C6.67 2.64 6.34 5.28 6 8 C4.02 8 2.04 8 0 8 C0 5.36 0 2.72 0 0 Z " fill="#4C6382" transform="translate(13,13)"/>
<path d="M0 0 C0.66 0 1.32 0 2 0 C2 0.99 2 1.98 2 3 C2.66 3.33 3.32 3.66 4 4 C3.34 4 2.68 4 2 4 C2 5.65 2 7.3 2 9 C2.66 9.33 3.32 9.66 4 10 C2.35 10 0.7 10 -1 10 C-2.25 3.375 -2.25 3.375 0 0 Z " fill="#FFFFFF" transform="translate(141,22)"/>
<path d="M0 0 C1.32 0 2.64 0 4 0 C4 3.3 4 6.6 4 10 C2.68 9.67 1.36 9.34 0 9 C0 6.03 0 3.06 0 0 Z " fill="#FFFFFF" transform="translate(76,22)"/>
<path d="M0 0 C1.98 0 3.96 0 6 0 C5.67 1.32 5.34 2.64 5 4 C3.35 4 1.7 4 0 4 C0 2.68 0 1.36 0 0 Z " fill="#5F748F" transform="translate(13,17)"/>
<path d="M0 0 C0.99 0 1.98 0 3 0 C3 0.99 3 1.98 3 3 C2.01 3 1.02 3 0 3 C0 2.01 0 1.02 0 0 Z " fill="#FFFFFF" transform="translate(146,21)"/>
<path d="M0 0 C0.99 0 1.98 0 3 0 C3 0.99 3 1.98 3 3 C2.01 3 1.02 3 0 3 C0 2.01 0 1.02 0 0 Z " fill="#FFFFFF" transform="translate(46,21)"/>
</svg>
